<svg id="wave" style="transform:rotate(0deg); transition: 0.3s" viewBox="0 0 1440 490" version="1.1" xmlns="http://www.w3.org/2000/svg"><defs><linearGradient id="sw-gradient-0" x1="0" x2="0" y1="1" y2="0"><stop stop-color="rgba(12, 183, 242, 1)" offset="0%"></stop><stop stop-color="rgba(16, 0, 87, 1)" offset="100%"></stop></linearGradient></defs><path style="transform:translate(0, 0px); opacity:1" fill="url(#sw-gradient-0)" d="M0,343L80,343C160,343,320,343,480,359.3C640,376,800,408,960,351.2C1120,294,1280,147,1440,73.5C1600,0,1760,0,1920,40.8C2080,82,2240,163,2400,163.3C2560,163,2720,82,2880,98C3040,114,3200,229,3360,245C3520,261,3680,180,3840,179.7C4000,180,4160,261,4320,245C4480,229,4640,114,4800,89.8C4960,65,5120,131,5280,179.7C5440,229,5600,261,5760,285.8C5920,310,6080,327,6240,334.8C6400,343,6560,343,6720,326.7C6880,310,7040,278,7200,253.2C7360,229,7520,212,7680,236.8C7840,261,8000,327,8160,359.3C8320,392,8480,392,8640,383.8C8800,376,8960,359,9120,294C9280,229,9440,114,9600,73.5C9760,33,9920,65,10080,122.5C10240,180,10400,261,10560,294C10720,327,10880,310,11040,310.3C11200,310,11360,327,11440,334.8L11520,343L11520,490L11440,490C11360,490,11200,490,11040,490C10880,490,10720,490,10560,490C10400,490,10240,490,10080,490C9920,490,9760,490,9600,490C9440,490,9280,490,9120,490C8960,490,8800,490,8640,490C8480,490,8320,490,8160,490C8000,490,7840,490,7680,490C7520,490,7360,490,7200,490C7040,490,6880,490,6720,490C6560,490,6400,490,6240,490C6080,490,5920,490,5760,490C5600,490,5440,490,5280,490C5120,490,4960,490,4800,490C4640,490,4480,490,4320,490C4160,490,4000,490,3840,490C3680,490,3520,490,3360,490C3200,490,3040,490,2880,490C2720,490,2560,490,2400,490C2240,490,2080,490,1920,490C1760,490,1600,490,1440,490C1280,490,1120,490,960,490C800,490,640,490,480,490C320,490,160,490,80,490L0,490Z"></path></svg>