<svg id="wave" style="transform:rotate(180deg); transition: 0.3s" viewBox="0 0 1440 490" version="1.1" xmlns="http://www.w3.org/2000/svg"><defs><linearGradient id="sw-gradient-0" x1="0" x2="0" y1="1" y2="0"><stop stop-color="rgba(12, 183, 242, 1)" offset="0%"></stop><stop stop-color="rgba(16, 0, 87, 1)" offset="100%"></stop></linearGradient></defs><path style="transform:translate(0, 0px); opacity:1" fill="url(#sw-gradient-0)" d="M0,98L120,155.2C240,212,480,327,720,367.5C960,408,1200,376,1440,343C1680,310,1920,278,2160,294C2400,310,2640,376,2880,351.2C3120,327,3360,212,3600,204.2C3840,196,4080,294,4320,302.2C4560,310,4800,229,5040,196C5280,163,5520,180,5760,187.8C6000,196,6240,196,6480,187.8C6720,180,6960,163,7200,204.2C7440,245,7680,343,7920,351.2C8160,359,8400,278,8640,261.3C8880,245,9120,294,9360,310.3C9600,327,9840,310,10080,253.2C10320,196,10560,98,10800,73.5C11040,49,11280,98,11520,98C11760,98,12000,49,12240,49C12480,49,12720,98,12960,147C13200,196,13440,245,13680,285.8C13920,327,14160,359,14400,343C14640,327,14880,261,15120,236.8C15360,212,15600,229,15840,269.5C16080,310,16320,376,16560,367.5C16800,359,17040,278,17160,236.8L17280,196L17280,490L17160,490C17040,490,16800,490,16560,490C16320,490,16080,490,15840,490C15600,490,15360,490,15120,490C14880,490,14640,490,14400,490C14160,490,13920,490,13680,490C13440,490,13200,490,12960,490C12720,490,12480,490,12240,490C12000,490,11760,490,11520,490C11280,490,11040,490,10800,490C10560,490,10320,490,10080,490C9840,490,9600,490,9360,490C9120,490,8880,490,8640,490C8400,490,8160,490,7920,490C7680,490,7440,490,7200,490C6960,490,6720,490,6480,490C6240,490,6000,490,5760,490C5520,490,5280,490,5040,490C4800,490,4560,490,4320,490C4080,490,3840,490,3600,490C3360,490,3120,490,2880,490C2640,490,2400,490,2160,490C1920,490,1680,490,1440,490C1200,490,960,490,720,490C480,490,240,490,120,490L0,490Z"></path></svg>