<svg xmlns="http://www.w3.org/2000/svg" xmlns:xlink="http://www.w3.org/1999/xlink" width="50" zoomAndPan="magnify" viewBox="0 0 37.5 37.499999" height="50" preserveAspectRatio="xMidYMid meet" version="1.0"><defs><clipPath id="id1"><path d="M 0 2 L 37.007812 2 L 37.007812 35.898438 L 0 35.898438 Z M 0 2 " clip-rule="nonzero"/></clipPath></defs><g clip-path="url(#id1)"><path fill="rgb(0%, 84.709167%, 100%)" d="M 30.804688 12.824219 C 30.417969 12.691406 30.015625 12.566406 29.601562 12.445312 C 29.667969 12.171875 29.734375 11.898438 29.789062 11.628906 C 30.699219 7.230469 30.105469 3.683594 28.066406 2.515625 C 26.113281 1.398438 22.921875 2.5625 19.699219 5.355469 C 19.390625 5.621094 19.078125 5.90625 18.765625 6.203125 C 18.558594 6.007812 18.355469 5.816406 18.148438 5.632812 C 14.769531 2.652344 11.382812 1.394531 9.347656 2.566406 C 7.398438 3.6875 6.820312 7.019531 7.640625 11.191406 C 7.71875 11.59375 7.8125 12.003906 7.917969 12.421875 C 7.4375 12.558594 6.976562 12.703125 6.53125 12.855469 C 2.570312 14.230469 0.0429688 16.382812 0.0429688 18.613281 C 0.0429688 20.917969 2.757812 23.234375 6.882812 24.636719 C 7.207031 24.746094 7.546875 24.851562 7.894531 24.949219 C 7.78125 25.402344 7.683594 25.84375 7.601562 26.277344 C 6.820312 30.375 7.429688 33.628906 9.375 34.742188 C 11.382812 35.894531 14.753906 34.710938 18.039062 31.859375 C 18.296875 31.632812 18.558594 31.394531 18.820312 31.144531 C 19.15625 31.464844 19.496094 31.773438 19.832031 32.0625 C 23.011719 34.78125 26.152344 35.878906 28.09375 34.761719 C 30.101562 33.605469 30.753906 30.109375 29.90625 25.859375 C 29.84375 25.53125 29.765625 25.203125 29.683594 24.863281 C 29.917969 24.796875 30.152344 24.722656 30.378906 24.648438 C 34.667969 23.234375 37.457031 20.949219 37.457031 18.613281 C 37.457031 16.375 34.847656 14.207031 30.804688 12.824219 Z M 29.875 23.140625 C 29.671875 23.207031 29.460938 23.273438 29.246094 23.335938 C 28.773438 21.84375 28.136719 20.257812 27.351562 18.621094 C 28.097656 17.023438 28.710938 15.457031 29.171875 13.976562 C 29.554688 14.085938 29.925781 14.203125 30.285156 14.328125 C 33.746094 15.511719 35.859375 17.265625 35.859375 18.613281 C 35.859375 20.050781 33.578125 21.917969 29.875 23.140625 Z M 28.339844 26.167969 C 28.714844 28.046875 28.765625 29.746094 28.519531 31.078125 C 28.296875 32.273438 27.847656 33.066406 27.292969 33.386719 C 26.113281 34.066406 23.59375 33.183594 20.875 30.855469 C 20.5625 30.589844 20.246094 30.304688 19.933594 30.003906 C 20.984375 28.855469 22.039062 27.523438 23.070312 26.042969 C 24.878906 25.886719 26.585938 25.625 28.136719 25.265625 C 28.210938 25.574219 28.28125 25.875 28.339844 26.167969 Z M 12.796875 33.269531 C 11.644531 33.675781 10.730469 33.6875 10.175781 33.367188 C 8.992188 32.691406 8.503906 30.078125 9.171875 26.574219 C 9.25 26.171875 9.339844 25.761719 9.445312 25.339844 C 10.976562 25.675781 12.675781 25.917969 14.488281 26.0625 C 15.523438 27.511719 16.609375 28.84375 17.699219 30.007812 C 17.460938 30.238281 17.222656 30.457031 16.988281 30.660156 C 15.535156 31.925781 14.082031 32.820312 12.796875 33.269531 Z M 7.402344 23.132812 C 5.578125 22.511719 4.070312 21.707031 3.035156 20.824219 C 2.109375 20.035156 1.640625 19.25 1.640625 18.613281 C 1.640625 17.261719 3.671875 15.53125 7.058594 14.355469 C 7.46875 14.214844 7.902344 14.082031 8.347656 13.953125 C 8.816406 15.46875 9.429688 17.050781 10.171875 18.652344 C 9.421875 20.277344 8.796875 21.886719 8.324219 23.417969 C 8.007812 23.328125 7.699219 23.230469 7.402344 23.132812 Z M 9.210938 10.886719 C 8.507812 7.3125 8.972656 4.617188 10.148438 3.941406 C 11.402344 3.21875 14.167969 4.246094 17.085938 6.824219 C 17.273438 6.988281 17.460938 7.160156 17.648438 7.339844 C 16.5625 8.5 15.488281 9.820312 14.460938 11.261719 C 12.699219 11.421875 11.015625 11.683594 9.46875 12.03125 C 9.371094 11.640625 9.285156 11.257812 9.210938 10.886719 Z M 25.347656 14.847656 C 24.980469 14.210938 24.597656 13.589844 24.210938 12.988281 C 25.40625 13.136719 26.550781 13.335938 27.625 13.582031 C 27.300781 14.609375 26.898438 15.683594 26.425781 16.785156 C 26.085938 16.144531 25.726562 15.496094 25.347656 14.847656 Z M 18.769531 8.472656 C 19.503906 9.269531 20.242188 10.15625 20.96875 11.117188 C 20.238281 11.082031 19.496094 11.066406 18.75 11.066406 C 18.011719 11.066406 17.273438 11.082031 16.546875 11.117188 C 17.273438 10.164062 18.019531 9.277344 18.769531 8.472656 Z M 12.144531 14.859375 C 11.773438 15.496094 11.421875 16.140625 11.085938 16.785156 C 10.621094 15.683594 10.222656 14.605469 9.898438 13.5625 C 10.964844 13.328125 12.105469 13.132812 13.289062 12.984375 C 12.898438 13.59375 12.515625 14.21875 12.144531 14.859375 Z M 13.324219 24.355469 C 12.097656 24.222656 10.945312 24.035156 9.875 23.804688 C 10.207031 22.746094 10.613281 21.644531 11.089844 20.519531 C 11.425781 21.164062 11.777344 21.808594 12.148438 22.445312 C 12.527344 23.097656 12.921875 23.734375 13.324219 24.355469 Z M 18.8125 28.867188 C 18.054688 28.054688 17.296875 27.152344 16.5625 26.1875 C 17.277344 26.214844 18.007812 26.230469 18.75 26.230469 C 19.511719 26.230469 20.265625 26.210938 21.007812 26.179688 C 20.28125 27.164062 19.542969 28.066406 18.8125 28.867188 Z M 26.441406 20.464844 C 26.941406 21.597656 27.363281 22.695312 27.699219 23.738281 C 26.613281 23.984375 25.441406 24.179688 24.207031 24.328125 C 24.597656 23.714844 24.980469 23.085938 25.355469 22.433594 C 25.738281 21.777344 26.097656 21.121094 26.441406 20.464844 Z M 23.972656 21.640625 C 23.386719 22.648438 22.785156 23.613281 22.175781 24.519531 C 21.066406 24.597656 19.917969 24.640625 18.75 24.640625 C 17.585938 24.640625 16.453125 24.605469 15.363281 24.535156 C 14.726562 23.613281 14.113281 22.648438 13.535156 21.648438 C 12.953125 20.65625 12.421875 19.652344 11.9375 18.652344 C 12.421875 17.652344 12.953125 16.648438 13.527344 15.652344 C 14.105469 14.65625 14.714844 13.695312 15.34375 12.78125 C 16.457031 12.699219 17.597656 12.652344 18.75 12.652344 C 19.910156 12.652344 21.050781 12.699219 22.164062 12.78125 C 22.78125 13.691406 23.386719 14.648438 23.964844 15.644531 C 24.554688 16.652344 25.09375 17.652344 25.578125 18.628906 C 25.09375 19.625 24.554688 20.632812 23.972656 21.640625 Z M 27.269531 3.894531 C 28.523438 4.613281 29.007812 7.507812 28.222656 11.308594 C 28.171875 11.550781 28.113281 11.796875 28.054688 12.046875 C 26.5 11.691406 24.816406 11.425781 23.050781 11.261719 C 22.023438 9.804688 20.957031 8.484375 19.886719 7.335938 C 20.175781 7.0625 20.464844 6.800781 20.75 6.550781 C 23.511719 4.164062 26.09375 3.21875 27.269531 3.894531 Z M 18.75 15.292969 C 20.59375 15.292969 22.089844 16.777344 22.089844 18.613281 C 22.089844 20.449219 20.59375 21.9375 18.75 21.9375 C 16.90625 21.9375 15.410156 20.449219 15.410156 18.613281 C 15.410156 16.777344 16.90625 15.292969 18.75 15.292969 Z M 18.75 15.292969 " fill-opacity="1" fill-rule="nonzero"/></g></svg>