<svg xmlns="http://www.w3.org/2000/svg" xmlns:xlink="http://www.w3.org/1999/xlink" width="50" zoomAndPan="magnify" viewBox="0 0 37.5 37.499999" height="50" preserveAspectRatio="xMidYMid meet" version="1.0"><defs><clipPath id="id1"><path d="M 1 1.839844 L 37 1.839844 L 37 35.589844 L 1 35.589844 Z M 1 1.839844 " clip-rule="nonzero"/></clipPath></defs><g clip-path="url(#id1)"><path fill="rgb(46.269226%, 29.019165%, 73.728943%)" d="M 26.003906 25.414062 C 27.316406 25.28125 28.316406 24.148438 28.269531 22.789062 C 28.222656 21.433594 27.089844 20.347656 25.730469 20.347656 L 25.640625 20.347656 C 24.234375 20.390625 23.148438 21.570312 23.191406 22.972656 C 23.238281 23.652344 23.507812 24.238281 23.917969 24.644531 C 22.378906 27.675781 20.019531 29.894531 16.484375 31.75 C 14.082031 33.015625 11.589844 33.46875 9.097656 33.152344 C 7.058594 32.882812 5.472656 31.976562 4.472656 30.484375 C 3.023438 28.265625 2.886719 25.867188 4.109375 23.46875 C 4.972656 21.75 6.332031 20.484375 7.191406 19.847656 C 7.011719 19.261719 6.738281 18.265625 6.605469 17.542969 C 0.03125 22.292969 0.710938 28.71875 2.707031 31.75 C 4.203125 34.011719 7.238281 35.414062 10.59375 35.414062 C 11.5 35.414062 12.40625 35.324219 13.3125 35.097656 C 19.113281 33.96875 23.507812 30.527344 26.003906 25.414062 Z M 33.980469 19.804688 C 30.535156 15.777344 25.457031 13.558594 19.65625 13.558594 L 18.933594 13.558594 C 18.523438 12.746094 17.664062 12.203125 16.710938 12.203125 L 16.621094 12.203125 C 15.214844 12.246094 14.128906 13.425781 14.171875 14.828125 C 14.21875 16.183594 15.351562 17.269531 16.710938 17.269531 L 16.800781 17.269531 C 17.800781 17.226562 18.660156 16.59375 19.023438 15.734375 L 19.839844 15.734375 C 23.28125 15.734375 26.546875 16.726562 29.492188 18.671875 C 31.757812 20.164062 33.390625 22.113281 34.296875 24.464844 C 35.070312 26.363281 35.023438 28.21875 34.207031 29.804688 C 32.9375 32.203125 30.808594 33.515625 27.996094 33.515625 C 26.183594 33.515625 24.460938 32.972656 23.554688 32.566406 C 23.058594 33.015625 22.148438 33.742188 21.515625 34.191406 C 23.464844 35.097656 25.457031 35.59375 27.363281 35.59375 C 31.714844 35.59375 34.933594 33.199219 36.15625 30.800781 C 37.46875 28.175781 37.378906 23.652344 33.980469 19.804688 Z M 10.953125 26.183594 C 11 27.539062 12.132812 28.628906 13.492188 28.628906 L 13.582031 28.628906 C 14.988281 28.582031 16.078125 27.40625 16.03125 26.003906 C 15.984375 24.644531 14.851562 23.558594 13.492188 23.558594 L 13.402344 23.558594 C 13.3125 23.558594 13.175781 23.558594 13.085938 23.605469 C 11.226562 20.527344 10.457031 17.179688 10.726562 13.558594 C 10.910156 10.84375 11.816406 8.492188 13.402344 6.546875 C 14.714844 4.871094 17.253906 4.058594 18.976562 4.011719 C 23.78125 3.921875 25.820312 9.894531 25.957031 12.292969 C 26.546875 12.429688 27.542969 12.746094 28.222656 12.972656 C 27.679688 5.640625 23.148438 1.839844 18.796875 1.839844 C 14.714844 1.839844 10.953125 4.78125 9.457031 9.125 C 7.375 14.917969 8.734375 20.484375 11.273438 24.871094 C 11.046875 25.1875 10.910156 25.6875 10.953125 26.183594 Z M 10.953125 26.183594 " fill-opacity="1" fill-rule="nonzero"/></g></svg>